<svg id="visual" viewBox="0 0 900 600" width="900" height="600" xmlns="http://www.w3.org/2000/svg" xmlns:xlink="http://www.w3.org/1999/xlink" version="1.1"><path d="M0 400L21.5 398.2C43 396.3 86 392.7 128.8 388.7C171.7 384.7 214.3 380.3 257.2 383.3C300 386.3 343 396.7 385.8 403.5C428.7 410.3 471.3 413.7 514.2 408.5C557 403.3 600 389.7 642.8 387.8C685.7 386 728.3 396 771.2 400.5C814 405 857 404 878.5 403.5L900 403L900 601L878.5 601C857 601 814 601 771.2 601C728.3 601 685.7 601 642.8 601C600 601 557 601 514.2 601C471.3 601 428.7 601 385.8 601C343 601 300 601 257.2 601C214.3 601 171.7 601 128.8 601C86 601 43 601 21.5 601L0 601Z" fill="#b7bdf8"></path><path d="M0 434L21.5 437.7C43 441.3 86 448.7 128.8 449.5C171.7 450.3 214.3 444.7 257.2 448.5C300 452.3 343 465.7 385.8 460.5C428.7 455.3 471.3 431.7 514.2 430.5C557 429.3 600 450.7 642.8 462C685.7 473.3 728.3 474.7 771.2 474.5C814 474.3 857 472.7 878.5 471.8L900 471L900 601L878.5 601C857 601 814 601 771.2 601C728.3 601 685.7 601 642.8 601C600 601 557 601 514.2 601C471.3 601 428.7 601 385.8 601C343 601 300 601 257.2 601C214.3 601 171.7 601 128.8 601C86 601 43 601 21.5 601L0 601Z" fill="#abb1f7"></path><path d="M0 475L21.5 473C43 471 86 467 128.8 462.8C171.7 458.7 214.3 454.3 257.2 461.2C300 468 343 486 385.8 489.7C428.7 493.3 471.3 482.7 514.2 478C557 473.3 600 474.7 642.8 473.5C685.7 472.3 728.3 468.7 771.2 470.8C814 473 857 481 878.5 485L900 489L900 601L878.5 601C857 601 814 601 771.2 601C728.3 601 685.7 601 642.8 601C600 601 557 601 514.2 601C471.3 601 428.7 601 385.8 601C343 601 300 601 257.2 601C214.3 601 171.7 601 128.8 601C86 601 43 601 21.5 601L0 601Z" fill="#9fa4f5"></path><path d="M0 514L21.5 517.8C43 521.7 86 529.3 128.8 525.2C171.7 521 214.3 505 257.2 502.8C300 500.7 343 512.3 385.8 514.8C428.7 517.3 471.3 510.7 514.2 507C557 503.3 600 502.7 642.8 500.2C685.7 497.7 728.3 493.3 771.2 495.3C814 497.3 857 505.7 878.5 509.8L900 514L900 601L878.5 601C857 601 814 601 771.2 601C728.3 601 685.7 601 642.8 601C600 601 557 601 514.2 601C471.3 601 428.7 601 385.8 601C343 601 300 601 257.2 601C214.3 601 171.7 601 128.8 601C86 601 43 601 21.5 601L0 601Z" fill="#9397f3"></path><path d="M0 561L21.5 558.7C43 556.3 86 551.7 128.8 553.2C171.7 554.7 214.3 562.3 257.2 563.7C300 565 343 560 385.8 556.8C428.7 553.7 471.3 552.3 514.2 555.2C557 558 600 565 642.8 564.8C685.7 564.7 728.3 557.3 771.2 555.5C814 553.7 857 557.3 878.5 559.2L900 561L900 601L878.5 601C857 601 814 601 771.2 601C728.3 601 685.7 601 642.8 601C600 601 557 601 514.2 601C471.3 601 428.7 601 385.8 601C343 601 300 601 257.2 601C214.3 601 171.7 601 128.8 601C86 601 43 601 21.5 601L0 601Z" fill="#888af1"></path></svg>